# Blender 4.4.3
# www.blender.org
mtllib Untitled.mtl
o Low_poly_tree
v -0.000000 -0.013033 -0.269858
v -0.000000 1.056939 -0.269858
v 0.190819 -0.013033 -0.190819
v 0.190819 1.056939 -0.190819
v 0.269858 -0.013033 0.000000
v 0.269858 1.056939 0.000000
v 0.190819 -0.013033 0.190819
v 0.190819 1.056939 0.190819
v -0.000000 -0.013033 0.269858
v -0.000000 1.056939 0.269858
v -0.190819 -0.013033 0.190819
v -0.190819 1.056939 0.190819
v -0.269858 -0.013033 -0.000000
v -0.269858 1.056939 -0.000000
v -0.190819 -0.013033 -0.190819
v -0.190819 1.056939 -0.190819
v 1.135473 1.056939 -1.135473
v 0.000000 1.056939 -1.605801
v 1.605801 1.056939 0.000000
v 1.135473 1.056939 1.135473
v -0.000000 1.056939 1.605801
v -1.135473 1.056939 1.135473
v -1.605801 1.056939 -0.000000
v -1.135473 1.056939 -1.135473
v 0.776603 1.989195 -0.754355
v 0.022247 1.989195 -1.066820
v 1.089067 1.989195 0.000000
v 0.776603 1.989195 0.754355
v 0.022247 1.989195 1.066820
v -0.732108 1.989195 0.754355
v -1.044572 1.989195 0.000000
v -0.732108 1.989195 -0.754355
v 1.096250 1.989195 -1.074003
v 0.022247 1.989195 -1.518869
v 1.541116 1.989195 0.000000
v 1.096250 1.989195 1.074003
v 0.022247 1.989195 1.518869
v -1.051755 1.989195 1.074002
v -1.496622 1.989195 0.000000
v -1.051755 1.989195 -1.074003
v 0.328900 2.945827 -0.545810
v -0.216911 2.945827 -0.771892
v 0.554982 2.945827 0.000000
v 0.328900 2.945827 0.545810
v -0.216911 2.945827 0.771892
v -0.762721 2.945827 0.545810
v -0.988803 2.945827 0.000000
v -0.762721 2.945827 -0.545810
v 0.725882 2.951388 -0.887174
v -0.161292 2.951388 -1.254653
v 1.093361 2.951388 0.000000
v 0.725882 2.951388 0.887174
v -0.161293 2.951388 1.254653
v -1.048467 2.951388 0.887174
v -1.415946 2.951388 -0.000000
v -1.048467 2.951388 -0.887174
v 0.340806 4.008132 -0.502099
v -0.161292 4.008132 -0.710075
v 0.548782 4.008132 -0.000000
v 0.340806 4.008132 0.502099
v -0.161293 4.008132 0.710075
v -0.663391 4.008132 0.502099
v -0.871367 4.008132 -0.000000
v -0.663391 4.008132 -0.502099
v 0.644218 4.041503 -0.805511
v -0.161292 4.041503 -1.139164
v 0.977871 4.041503 -0.000000
v 0.644218 4.041503 0.805511
v -0.161293 4.041503 1.139164
v -0.966803 4.041503 0.805510
v -1.300456 4.041503 -0.000000
v -0.966803 4.041503 -0.805511
v 0.136181 5.014820 -0.297473
v -0.161292 5.014820 -0.420691
v 0.259398 5.014820 0.000000
v 0.136181 5.014820 0.297473
v -0.161293 5.014820 0.420690
v -0.458766 5.014820 0.297473
v -0.581983 5.014820 -0.000000
v -0.458766 5.014820 -0.297473
v -0.083816 5.626619 -0.016296
v -0.100113 5.626619 -0.023046
v -0.077066 5.626619 -0.000000
v -0.083816 5.626619 0.016296
v -0.100113 5.626619 0.023046
v -0.116409 5.626619 0.016296
v -0.123159 5.626619 -0.000000
v -0.116409 5.626619 -0.016296
vn 0.3827 -0.0000 -0.9239
vn 0.9239 -0.0000 -0.3827
vn 0.9239 -0.0000 0.3827
vn 0.3827 -0.0000 0.9239
vn -0.3827 -0.0000 0.9239
vn -0.9239 -0.0000 0.3827
vn -0.0000 -1.0000 -0.0000
vn -0.9239 -0.0000 -0.3827
vn -0.3827 -0.0000 -0.9239
vn -0.3363 0.4774 0.8118
vn 0.8223 0.4558 0.3406
vn 0.3388 0.4648 -0.8180
vn -0.3363 0.4774 -0.8118
vn -0.8074 0.4861 0.3344
vn 0.3388 0.4648 0.8180
vn 0.8223 0.4558 -0.3406
vn -0.8074 0.4861 -0.3344
vn -0.8295 0.4403 0.3436
vn 0.0046 -0.9999 -0.0110
vn 0.2963 0.6327 0.7154
vn 0.6690 0.6897 -0.2771
vn -0.8295 0.4403 -0.3436
vn -0.3244 0.5304 0.7832
vn 0.6690 0.6897 0.2771
vn 0.2963 0.6327 -0.7154
vn -0.3244 0.5304 -0.7832
vn -0.8342 0.4299 -0.3455
vn -0.0050 -0.9999 -0.0121
vn -0.0130 -0.9999 0.0054
vn 0.0046 -0.9999 0.0110
vn 0.0103 -0.9999 -0.0043
vn -0.0130 -0.9999 -0.0054
vn -0.0050 -0.9999 0.0121
vn 0.0103 -0.9999 0.0043
vn 0.0775 -0.9965 -0.0321
vn -0.3455 0.4299 0.8342
vn 0.8342 0.4299 0.3455
vn 0.3455 0.4299 -0.8342
vn -0.3455 0.4299 -0.8342
vn -0.8342 0.4299 0.3455
vn 0.3455 0.4299 0.8342
vn 0.8342 0.4299 -0.3455
vn -0.3162 0.5634 -0.7633
vn -0.0775 -0.9965 -0.0321
vn -0.0321 -0.9965 0.0775
vn 0.0775 -0.9965 0.0321
vn 0.0321 -0.9965 -0.0775
vn -0.0321 -0.9965 -0.0775
vn -0.0775 -0.9965 0.0321
vn 0.0321 -0.9965 0.0775
vn 0.8237 0.4530 0.3412
vn -0.7633 0.5634 0.3162
vn 0.3162 0.5634 0.7633
vn 0.7633 0.5634 -0.3162
vn -0.7633 0.5634 -0.3162
vn -0.3162 0.5634 0.7633
vn 0.7633 0.5634 0.3162
vn 0.3162 0.5634 -0.7633
vn -0.0000 1.0000 -0.0000
vn 0.3336 0.4901 -0.8053
vn -0.3225 0.5383 -0.7786
vn -0.7594 0.5695 0.3146
vn 0.3336 0.4901 0.8053
vn 0.8237 0.4530 -0.3412
vn -0.7594 0.5695 -0.3146
vn -0.3225 0.5383 0.7786
vn 0.0001 1.0000 -0.0000
vt 0.432328 0.557907
vt 0.811289 0.816289
s 0
usemtl Material.002
f 2/1/1 3/1/1 1/1/1
f 4/1/2 5/1/2 3/1/2
f 6/1/3 7/1/3 5/1/3
f 8/1/4 9/1/4 7/1/4
f 10/1/5 11/1/5 9/1/5
f 12/1/6 13/1/6 11/1/6
f 12/2/7 23/2/7 14/2/7
f 14/1/8 15/1/8 13/1/8
f 16/1/9 1/1/9 15/1/9
f 7/1/7 11/1/7 15/1/7
f 21/2/10 30/2/10 22/2/10
f 8/2/7 21/2/7 10/2/7
f 16/2/7 23/2/7 24/2/7
f 4/2/7 19/2/7 6/2/7
f 10/2/7 22/2/7 12/2/7
f 16/2/7 18/2/7 2/2/7
f 4/2/7 18/2/7 17/2/7
f 6/2/7 20/2/7 8/2/7
f 31/2/7 40/2/7 32/2/7
f 19/2/11 28/2/11 20/2/11
f 17/2/12 26/2/12 25/2/12
f 18/2/13 32/2/13 26/2/13
f 22/2/14 31/2/14 23/2/14
f 20/2/15 29/2/15 21/2/15
f 19/2/16 25/2/16 27/2/16
f 24/2/17 31/2/17 32/2/17
f 39/2/18 46/2/18 47/2/18
f 29/2/7 38/2/7 30/2/7
f 27/2/7 36/2/7 28/2/7
f 25/2/7 34/2/7 33/2/7
f 32/2/7 34/2/7 26/2/7
f 30/2/7 39/2/7 31/2/7
f 28/2/7 37/2/7 29/2/7
f 25/2/7 35/2/7 27/2/7
f 41/2/19 50/2/19 49/2/19
f 37/2/20 44/2/20 45/2/20
f 33/2/21 43/2/21 35/2/21
f 39/2/22 48/2/22 40/2/22
f 38/2/23 45/2/23 46/2/23
f 36/2/24 43/2/24 44/2/24
f 34/2/25 41/2/25 33/2/25
f 40/2/26 42/2/26 34/2/26
f 55/2/27 64/2/27 56/2/27
f 42/2/28 56/2/28 50/2/28
f 46/2/29 55/2/29 47/2/29
f 44/2/30 53/2/30 45/2/30
f 43/2/31 49/2/31 51/2/31
f 48/2/32 55/2/32 56/2/32
f 45/2/33 54/2/33 46/2/33
f 43/2/34 52/2/34 44/2/34
f 57/2/35 67/2/35 59/2/35
f 53/2/36 62/2/36 54/2/36
f 51/2/37 60/2/37 52/2/37
f 50/2/38 57/2/38 49/2/38
f 50/2/39 64/2/39 58/2/39
f 55/2/40 62/2/40 63/2/40
f 52/2/41 61/2/41 53/2/41
f 49/2/42 59/2/42 51/2/42
f 66/2/43 80/2/43 74/2/43
f 63/2/44 72/2/44 64/2/44
f 62/2/45 69/2/45 70/2/45
f 60/2/46 67/2/46 68/2/46
f 57/2/47 66/2/47 65/2/47
f 64/2/48 66/2/48 58/2/48
f 62/2/49 71/2/49 63/2/49
f 60/2/50 69/2/50 61/2/50
f 75/2/51 84/2/51 76/2/51
f 71/2/52 78/2/52 79/2/52
f 69/2/53 76/2/53 77/2/53
f 67/2/54 73/2/54 75/2/54
f 71/2/55 80/2/55 72/2/55
f 69/2/56 78/2/56 70/2/56
f 67/2/57 76/2/57 68/2/57
f 66/2/58 73/2/58 65/2/58
f 87/2/59 85/2/59 83/2/59
f 73/2/60 82/2/60 81/2/60
f 74/2/61 88/2/61 82/2/61
f 78/2/62 87/2/62 79/2/62
f 76/2/63 85/2/63 77/2/63
f 75/2/64 81/2/64 83/2/64
f 80/2/65 87/2/65 88/2/65
f 77/2/66 86/2/66 78/2/66
f 2/1/1 4/1/1 3/1/1
f 4/1/2 6/1/2 5/1/2
f 6/1/3 8/1/3 7/1/3
f 8/1/4 10/1/4 9/1/4
f 10/1/5 12/1/5 11/1/5
f 12/1/6 14/1/6 13/1/6
f 12/2/7 22/2/7 23/2/7
f 14/1/8 16/1/8 15/1/8
f 16/1/9 2/1/9 1/1/9
f 15/1/7 1/1/7 3/1/7
f 3/1/7 5/1/7 7/1/7
f 7/1/7 9/1/7 11/1/7
f 11/1/7 13/1/7 15/1/7
f 15/1/7 3/1/7 7/1/7
f 21/2/10 29/2/10 30/2/10
f 8/2/7 20/2/7 21/2/7
f 16/2/7 14/2/7 23/2/7
f 4/2/7 17/2/7 19/2/7
f 10/2/7 21/2/7 22/2/7
f 16/2/7 24/2/7 18/2/7
f 4/2/7 2/2/7 18/2/7
f 6/2/7 19/2/7 20/2/7
f 31/2/7 39/2/7 40/2/7
f 19/2/11 27/2/11 28/2/11
f 17/2/12 18/2/12 26/2/12
f 18/2/13 24/2/13 32/2/13
f 22/2/14 30/2/14 31/2/14
f 20/2/15 28/2/15 29/2/15
f 19/2/16 17/2/16 25/2/16
f 24/2/17 23/2/17 31/2/17
f 39/2/18 38/2/18 46/2/18
f 29/2/7 37/2/7 38/2/7
f 27/2/7 35/2/7 36/2/7
f 25/2/7 26/2/7 34/2/7
f 32/2/7 40/2/7 34/2/7
f 30/2/7 38/2/7 39/2/7
f 28/2/7 36/2/7 37/2/7
f 25/2/7 33/2/7 35/2/7
f 41/2/19 42/2/19 50/2/19
f 37/2/20 36/2/20 44/2/20
f 33/2/21 41/2/21 43/2/21
f 39/2/22 47/2/22 48/2/22
f 38/2/23 37/2/23 45/2/23
f 36/2/24 35/2/24 43/2/24
f 34/2/25 42/2/25 41/2/25
f 40/2/26 48/2/26 42/2/26
f 55/2/27 63/2/27 64/2/27
f 42/2/28 48/2/28 56/2/28
f 46/2/29 54/2/29 55/2/29
f 44/2/30 52/2/30 53/2/30
f 43/2/31 41/2/31 49/2/31
f 48/2/32 47/2/32 55/2/32
f 45/2/33 53/2/33 54/2/33
f 43/2/34 51/2/34 52/2/34
f 57/2/35 65/2/35 67/2/35
f 53/2/36 61/2/36 62/2/36
f 51/2/37 59/2/37 60/2/37
f 50/2/38 58/2/38 57/2/38
f 50/2/39 56/2/39 64/2/39
f 55/2/40 54/2/40 62/2/40
f 52/2/41 60/2/41 61/2/41
f 49/2/42 57/2/42 59/2/42
f 66/2/43 72/2/43 80/2/43
f 63/2/44 71/2/44 72/2/44
f 62/2/45 61/2/45 69/2/45
f 60/2/46 59/2/46 67/2/46
f 57/2/47 58/2/47 66/2/47
f 64/2/48 72/2/48 66/2/48
f 62/2/49 70/2/49 71/2/49
f 60/2/50 68/2/50 69/2/50
f 75/2/51 83/2/51 84/2/51
f 71/2/52 70/2/52 78/2/52
f 69/2/53 68/2/53 76/2/53
f 67/2/54 65/2/54 73/2/54
f 71/2/55 79/2/55 80/2/55
f 69/2/56 77/2/56 78/2/56
f 67/2/57 75/2/57 76/2/57
f 66/2/58 74/2/58 73/2/58
f 83/2/59 81/2/59 82/2/59
f 82/2/67 88/2/67 87/2/67
f 87/2/59 86/2/59 85/2/59
f 85/2/59 84/2/59 83/2/59
f 83/2/59 82/2/59 87/2/59
f 73/2/60 74/2/60 82/2/60
f 74/2/61 80/2/61 88/2/61
f 78/2/62 86/2/62 87/2/62
f 76/2/63 84/2/63 85/2/63
f 75/2/64 73/2/64 81/2/64
f 80/2/65 79/2/65 87/2/65
f 77/2/66 85/2/66 86/2/66
